<?xml version="1.0" standalone="no"?>
<!DOCTYPE svg PUBLIC "-//W3C//DTD SVG 20010904//EN"
 "http://www.w3.org/TR/2001/REC-SVG-20010904/DTD/svg10.dtd">
<svg version="1.0" xmlns="http://www.w3.org/2000/svg"
 width="1855.000000pt" height="374.000000pt" viewBox="0 0 1855.000000 374.000000"
 preserveAspectRatio="xMidYMid meet">

<g transform="translate(0.000000,374.000000) scale(0.100000,-0.100000)"
fill="#000000" stroke="none">
<path d="M18200 3110 c0 -430 -3 -540 -13 -540 -7 0 -41 41 -76 91 -77 109
-141 166 -241 218 -107 55 -162 66 -330 66 -160 -1 -238 -17 -366 -75 -237
-107 -421 -345 -498 -641 -52 -202 -60 -520 -17 -729 89 -442 356 -729 733
-790 110 -18 304 -8 389 19 132 42 257 144 351 287 26 39 49 64 60 64 17 0 18
-13 18 -170 l0 -170 170 0 170 0 0 1455 0 1455 -175 0 -175 0 0 -540z m-437
-535 c196 -41 342 -202 408 -450 27 -101 37 -363 19 -487 -14 -100 -60 -243
-101 -315 -96 -167 -257 -261 -449 -262 -221 -2 -383 103 -485 312 -73 151
-90 237 -89 462 1 172 3 199 27 287 65 242 217 411 410 453 82 18 177 18 260
0z"/>
<path d="M5515 2948 c-191 -17 -370 -136 -446 -296 -53 -110 -59 -99 -59 98
l0 170 -205 0 -205 0 0 -1090 0 -1090 210 0 210 0 0 653 c0 358 5 690 10 737
24 208 180 377 387 421 58 11 266 7 326 -7 l27 -6 0 201 c0 152 -3 203 -12
206 -25 8 -174 10 -243 3z"/>
<path d="M16185 2949 c-85 -9 -140 -25 -220 -67 -93 -48 -189 -145 -233 -234
-18 -38 -37 -68 -43 -68 -5 0 -9 71 -9 170 l0 170 -205 0 -205 0 0 -1090 0
-1090 210 0 210 0 0 678 c0 425 4 701 11 742 30 186 174 336 372 387 48 12 89
14 187 9 69 -3 137 -8 153 -12 l27 -6 0 201 c0 153 -3 203 -12 206 -25 7 -184
10 -243 4z"/>
<path d="M816 2940 c-253 -40 -468 -164 -578 -334 -102 -158 -113 -390 -26
-565 44 -90 141 -185 243 -238 113 -58 194 -83 484 -148 153 -34 280 -68 317
-85 150 -68 210 -210 144 -341 -42 -82 -165 -158 -293 -180 -88 -14 -262 -7
-332 15 -122 38 -212 122 -256 238 -12 32 -25 58 -29 58 -20 0 -393 -59 -397
-63 -9 -9 21 -105 57 -182 91 -193 251 -316 497 -382 92 -25 111 -27 323 -27
199 0 234 3 302 21 189 53 301 114 414 227 122 122 174 246 174 413 0 160 -42
273 -139 371 -107 109 -255 177 -516 237 -487 113 -545 137 -601 247 -22 44
-25 61 -22 119 4 82 37 136 111 186 81 55 150 75 271 81 172 8 274 -25 365
-116 35 -35 97 -134 107 -169 1 -4 375 64 380 69 7 8 -33 114 -68 181 -21 40
-63 93 -122 152 -105 105 -203 160 -346 195 -97 24 -363 35 -464 20z"/>
<path d="M3100 2944 c-81 -11 -211 -49 -288 -85 -293 -136 -485 -402 -558
-775 -25 -124 -25 -404 0 -528 52 -264 147 -448 313 -607 131 -125 278 -199
469 -235 124 -23 385 -15 499 16 317 85 538 318 599 633 l14 67 -207 0 -207 0
-17 -54 c-22 -70 -87 -167 -140 -210 -94 -76 -187 -106 -330 -106 -193 0 -340
77 -442 230 -26 38 -57 97 -71 130 -109 269 -92 659 38 890 47 83 160 191 238
227 155 73 353 71 492 -4 91 -50 198 -187 222 -285 l6 -28 205 0 205 0 0 27
c0 15 -7 56 -16 92 -70 282 -306 505 -615 581 -83 21 -324 35 -409 24z"/>
<path d="M6835 2943 c-355 -46 -605 -211 -727 -480 -16 -36 -28 -66 -26 -68 2
-2 91 -23 198 -47 l195 -45 28 48 c37 64 134 159 195 192 117 63 329 81 464
38 141 -45 226 -165 235 -330 5 -78 3 -89 -19 -121 -35 -53 -110 -73 -383
-104 -363 -42 -522 -79 -679 -158 -226 -114 -335 -339 -297 -612 31 -220 145
-381 336 -476 131 -65 215 -83 390 -83 177 -1 249 13 372 74 97 48 203 141
248 218 17 28 33 51 38 51 4 0 7 -67 7 -150 l0 -150 210 0 211 0 -3 803 c-4
792 -4 803 -26 882 -33 118 -77 198 -158 284 -118 125 -263 194 -475 225 -97
15 -259 19 -334 9z m555 -1520 c-24 -116 -98 -223 -200 -292 -80 -53 -151 -78
-258 -92 -230 -29 -427 52 -482 199 -31 80 -25 190 13 255 71 120 183 165 542
217 208 29 292 47 357 73 l33 13 3 -160 c1 -89 -2 -184 -8 -213z"/>
<path d="M9313 2939 c-166 -28 -319 -135 -423 -298 -27 -42 -52 -70 -62 -70
-17 -1 -18 14 -18 174 l0 175 -210 0 -210 0 0 -1460 0 -1460 215 0 215 0 0
540 c0 312 4 540 9 540 5 0 40 -43 77 -96 107 -151 226 -233 392 -270 102 -23
316 -15 420 15 290 84 513 322 607 648 43 146 58 263 58 448 0 341 -77 599
-238 803 -165 208 -409 324 -680 321 -55 -1 -123 -5 -152 -10z m192 -364 c99
-21 170 -60 245 -135 150 -149 228 -428 200 -719 -31 -330 -171 -558 -387
-633 -98 -33 -269 -33 -366 1 -284 97 -441 494 -372 941 62 409 326 620 680
545z"/>
<path d="M13679 2939 c-249 -36 -477 -155 -597 -311 -45 -58 -122 -199 -122
-223 0 -9 33 -21 98 -35 53 -12 141 -32 194 -45 l97 -22 35 57 c67 109 174
188 301 226 80 23 259 24 335 1 156 -46 247 -169 252 -340 3 -100 -11 -130
-76 -161 -54 -26 -89 -32 -403 -71 -422 -51 -613 -115 -748 -250 -109 -108
-155 -230 -155 -411 0 -324 177 -547 505 -635 114 -31 346 -32 456 -1 175 48
321 152 400 286 12 20 25 36 30 36 5 0 9 -67 9 -150 l0 -150 205 0 206 0 -3
818 -3 817 -26 82 c-34 108 -79 182 -164 269 -110 112 -273 183 -490 213 -87
13 -253 12 -336 0z m601 -1281 c0 -173 -12 -250 -50 -334 -50 -112 -170 -217
-295 -259 -184 -61 -424 -31 -542 69 -18 15 -44 52 -59 82 -22 45 -27 68 -27
132 0 98 22 151 87 210 87 80 173 107 461 147 207 29 341 57 383 80 15 8 30
14 35 15 4 0 7 -64 7 -142z"/>
<path d="M10622 2903 c3 -10 182 -506 398 -1103 l393 -1085 -28 -80 c-47 -138
-92 -221 -150 -274 -80 -73 -144 -83 -330 -55 l-40 6 -42 -149 c-24 -81 -43
-151 -43 -156 0 -4 141 -7 313 -7 l314 0 48 32 c101 67 204 194 261 325 22 49
934 2549 934 2559 0 3 -102 3 -227 2 l-228 -3 -275 -842 c-164 -504 -279 -843
-287 -843 -7 0 -38 80 -72 188 -33 103 -157 482 -275 842 l-214 655 -227 3
c-213 2 -227 1 -223 -15z"/>
</g>
</svg>
